<?xml version="1.0" encoding="utf-8"?>
<!-- Svg Vector Icons : http://www.onlinewebfonts.com/icon -->
<!DOCTYPE svg PUBLIC "-//W3C//DTD SVG 1.1//EN" "http://www.w3.org/Graphics/SVG/1.1/DTD/svg11.dtd">
<svg version="1.1" xmlns="http://www.w3.org/2000/svg" xmlns:xlink="http://www.w3.org/1999/xlink" x="0px" y="0px" viewBox="0 0 256 256" enable-background="new 0 0 256 256" xml:space="preserve">
<metadata> Svg Vector Icons : http://www.onlinewebfonts.com/icon </metadata>
<g><g><g><path fill="#000000" d="M73,28.3L50.4,38.5L30.4,70.6c-11,17.6-20.2,32.6-20.3,33.2c-0.1,0.6,0,1.7,0.4,2.3c0.7,1.3,32.3,25.2,34,25.7c0.6,0.1,1.5,0.2,2.1,0c0.6-0.1,4.6-4.3,9.5-10.2l8.5-10l0.1,41.6l0.1,41.5H128h63.2l0.1-40.6l0.1-40.6l6.1,8.5c3.3,4.7,6.5,8.9,7.1,9.3c0.6,0.4,1.6,0.7,2.2,0.7c1.6,0,37.8-24.2,38.7-25.9c0.6-1,0.6-1.5,0.1-2.6c-0.3-0.8-9.5-15.7-20.4-33.2l-19.9-31.8l-22.5-10.2C170.4,22.6,159.8,18,159.2,18c-1.7,0-3.1,1.2-3.6,3.4c-2.7,10.9-5.2,15.7-10.8,21.3c-3.2,3.2-4.9,4.6-7.6,5.9c-7.4,3.6-12.3,3.9-18.1,1.2c-9-4.3-14.4-11.8-17.8-24.9c-1.5-5.5-2.3-6.7-4.6-6.7C96,18.1,85.3,22.7,73,28.3z M94.1,31.8c1.6,5.8,5.1,12.9,8.3,16.7c4.9,5.9,12.3,10.2,18.4,10.8c2.5,0.2,3,0.4,3,1.1c0,0.8-1,0.9-27.5,0.9c-16.6,0-27.4-0.2-27.3-0.4c0.1-0.2,2.4-6.9,5.2-14.8l5.1-14.3l6.5-3c5.5-2.5,6.5-2.9,6.8-2.2C92.7,27.1,93.4,29.4,94.1,31.8z M176.6,32c0,0,2.3,6.4,5.1,14.2c2.7,7.7,5.1,14.3,5.2,14.6c0.2,0.5-5.4,0.6-27.3,0.6c-26.5,0-27.5,0-27.5-0.9c0-0.7,0.5-0.9,2.7-1.1c5.9-0.5,11.5-3.5,16.7-8.7c5.1-5.1,8.5-11.6,10.7-19.8c0.6-2.2,1.1-4.1,1.2-4.5c0.1-0.4,2.4,0.5,6.7,2.4C173.6,30.5,176.6,31.9,176.6,32z M138.3,89.3c12.7,2.7,20.2,15.9,16,28.2c-1.1,3.1-2.9,5.9-5.5,8.5l-2.1,2.1l2.1,2.1c8.9,8.7,9,22.6,0,31c-5.2,4.9-9.7,6.3-20.8,6.3c-11.1,0-15.6-1.4-20.8-6.3c-6.1-5.8-8.3-14.5-5.5-22.5c1.1-3.2,3.8-7.3,6-9.1l1.8-1.4l-2.2-2.2c-8.8-8.6-9.1-21.7-0.6-30.5c2.9-3,6.8-5.3,10.9-6.2C121.5,88.4,134.2,88.4,138.3,89.3z"/><path fill="#000000" d="M119.1,96.9c-5.6,1.4-9.7,6-10.7,11.9c-0.4,2.5,0.8,7,2.5,9.5c1.7,2.5,4.9,4.7,8,5.3c1.5,0.4,5.5,0.5,10.5,0.4c7.4-0.1,8.3-0.2,10.3-1.2c8.6-4.2,10.6-15.5,3.8-22.1c-3.6-3.5-5.4-4-14.6-4.1C124.5,96.5,120,96.6,119.1,96.9z"/><path fill="#000000" d="M117.9,132.6c-4.6,1.4-7.8,5-9.1,9.9c-1.2,4.8,0.2,9.6,3.9,13c3.6,3.3,5.3,3.8,15.3,3.8c9.9,0,11.7-0.5,15.3-3.8c3.7-3.5,5.1-8.3,3.9-13c-1.3-5-4.6-8.5-9.3-10C134.9,131.7,120.8,131.7,117.9,132.6z"/><path fill="#000000" d="M65.1,202.8c-0.2,0.1-0.3,1.9-0.3,3.9v3.6H128h63.2l-0.1-3.8l-0.1-3.8l-62.8-0.1C93.7,202.5,65.3,202.6,65.1,202.8z"/><path fill="#000000" d="M65,218.8c-0.1,0.4-0.2,4.3-0.1,8.8l0.1,8.2l1.3,1.1l1.3,1.1H128h60.4l1.3-1.1l1.3-1.1v-8.7v-8.7l-62.9-0.1C73.7,218.2,65.2,218.2,65,218.8z"/></g></g></g>
</svg>